<?xml version="1.0" encoding="utf-8"?>
<!-- Generator: Adobe Illustrator 24.1.0, SVG Export Plug-In . SVG Version: 6.00 Build 0)  -->
<svg version="1.1" id="Layer_1" xmlns="http://www.w3.org/2000/svg" xmlns:xlink="http://www.w3.org/1999/xlink" x="0px" y="0px"
	 viewBox="0 0 40 29.6" style="enable-background:new 0 0 40 29.6;" xml:space="preserve">
<style type="text/css">
	.st0{fill:#023047;}
	.st1{fill:#8ECAE6;}
	.st2{fill:#FAFAFA;}
	.st3{fill:#FB8500;}
</style>
<g id="Coffee_Box_Icon" transform="translate(-153 -240)">
	<path id="Union_1" class="st0" d="M153,267.6v-4.9c0,0,0-0.1,0-0.1c0,0,0-0.1,0-0.1c0-0.7,0.6-1.3,1.3-1.3h7.6
		c0.7,0,1.3,0.6,1.3,1.3c0,0.7-0.6,1.3-1.3,1.3H156v3.9c0,0.8-0.7,1.5-1.5,1.5S153,268.5,153,267.6z"/>
	<path id="Union_2" class="st1" d="M156.8,257v-8.1c0-4.9,4-8.8,8.8-8.8c0.1,0,0.2,0,0.2,0c0.1,0,0.1,0,0.2,0h22.4
		c2.5,0,4.6,2.1,4.6,4.6v16.5c0,2.5-2.1,4.6-4.6,4.6H167c-4.8,0.7-9.3-2.6-10.1-7.4C156.8,257.9,156.8,257.4,156.8,257z"/>
	<circle id="Ellipse_1" class="st0" cx="175.1" cy="265.7" r="3.8"/>
	<ellipse id="Ellipse_2" class="st0" cx="183.4" cy="265.7" rx="3.9" ry="3.8"/>
	<path id="Rectangle_8" class="st2" d="M171.1,245.4h11.6c2.5,0,4.6,2.1,4.6,4.6v3.7c0,2.5-2.1,4.6-4.6,4.6h-11.6
		c-2.5,0-4.6-2.1-4.6-4.6V250C166.5,247.5,168.5,245.4,171.1,245.4z"/>
	<path id="Subtraction_1" class="st0" d="M193,244.7h-35c1.5-2.9,4.5-4.7,7.8-4.7c0.1,0,0.2,0,0.2,0c0.1,0,0.1,0,0.2,0h22.2
		c2.5,0,4.6,2.1,4.6,4.6c0,0,0,0,0,0V244.7z"/>
	<path id="Rectangle_15" class="st0" d="M167.5,256.3h18.8c0.5,0,1,0.4,1,1l0,0c0,0.5-0.4,1-1,1h-18.8c-0.5,0-1-0.4-1-1l0,0
		C166.5,256.7,166.9,256.3,167.5,256.3z"/>
	<g id="Coffee_icon" transform="translate(-853 -69.5)">
		<path id="Path_2" class="st3" d="M1023.6,325.8h1.4l0.5-2.7h-2.4L1023.6,325.8z"/>
		<path id="Path_3" class="st0" d="M1022.8,323l0.2-0.5h2.6l0.2,0.5H1022.8z"/>
		<path id="Path_4" class="st0" d="M1023.2,322.7l0.2-0.3h1.9l0.2,0.3H1023.2z"/>
	</g>
</g>
</svg>
